<svg xmlns="http://www.w3.org/2000/svg" width="50%" height="50%" viewBox="-5 -5 32 32">
<title>
</title>
<!--
<path d="M21 15.4h1.2l-.6-1.9.6-1.9h-2.1c-.3-1.1-.9-2.2-1.6-3.3-.7-1.1-1.5-2-2.6-2.9-1-.9-2.3-1.7-3.9-2.3V3l-.1.1s-.6.1-1.5.5c-.6.4-1.4.8-2.2 1.5-1.3.9-2.6 2.3-3.6 4.3-.4.7-.7 1.4-.9 2.2H1.8l.6 1.9-.6 1.9H3c-.1.6-.1 1.2-.1 1.8v1.2l.1.1s1 .6 2.6 1.1c1.6.5 3.8 1 6.5 1 2.1 0 4.5-.3 7-1.3.6-.2 1.2-.5 1.8-.8l.1-.1h.1v-1.2c0-.5-.1-1.1-.1-1.8zm-18.3-.7l.4-1.2-.4-1.3h18.6l-.4 1.3.4 1.2H2.7zM6 11.6l1.4-2.3 1.2-1.9 1.9 2.4 1.2-1.1 1.2 1.5 1.9-2.8 3.1 4.2H6zm-1.2-1.3c.3-.5.6-1 .8-1.4.1-.1.1-.2.2-.3 0 0 .1-.1.1-.2 2.4-3.6 5.9-4.7 6-4.7l.1-.1v.1c2.5 1 4.3 2.5 5.5 4.2.5.5.8 1.1 1.1 1.7.4.6.6 1.3.9 1.9h-.8c-1-2.6-3-5.5-6.7-7.2-.8.3-5 1.9-6.9 7.2h-.8c.2-.3.4-.7.5-1.2zm15.6 7.6v.1l-.1.1c-2.9 1.5-5.7 2-8.2 2-4.5 0-7.9-1.6-8.4-1.9-.1-.1-.1-.1-.2-.1v-.2c0-.9 0-1.7.1-2.4h.6c0 .6-.1 1.3 0 2.1.6.4 3 1.4 6.2 1.7.8-.4 1.3-1.3.1-2.3h-.2v-.1h-.1V16.6c-.2-.4 0-.7 1.1-.8.3-.1 1.4 0 1-.4h.5c.4.4.4.8-1.3 1-.2 0-.3.2-.3.3h.1c1.7.4 2.1 1.6 1.9 2.5 2-.1 4.2-.6 6.4-1.7 0-.4 0-1.2-.2-2.2h.7c0 .2.1.3.1.5.3 1.3.2 2 .2 2.1z">
</path>

<path fill="transparent" stroke="black" d="M24.273 5.5 c 0.8 -0.8 1.9 -1.3 3.1 -1.3 c 1.5 0 2.9 0.9 3.7 2.2 c 0.6 -0.3 1.3 -0.5 2 -0.5 c 2.9 0 5.2 2.3 5.2 5.2 s -2.3 5.1 -5.2 5.1 h -1 c -0.6 1.1 -1.9 1.9 -3.3 1.9 c -0.6 0 -1.2 -0.1 -1.7 -0.4 c -0.6 1.5 -2.1 2.6 -3.9 2.6 c -1.9 0 -3.5 -1.1 -4.1 -2.8 c -0.3 0 -0.6 0.1 -0.8 0.1 c -2.2 0 -4 -1.8 -4 -4 c 0 -1.5 0.7 -2.8 1.9 -3.5 c -0.2 -0.5 -0.3 -1.2 -0.3 -1.8 c 0 -2.6 2 -4.7 4.6 -4.7 c 1.6 0.1 3 0.8 3.8 1.9"></path>
-->
<path d="M6.3 7c-1.6 3.4-1.6 4.8 0 8.3h1.1C6 12.3 6 10 7.4 7H6.3zM17 13.6c.3-.1.5-.1.7-.1h.5c.8-2.3.6-3.7-.7-6.6h-1.1c1.1 2.5 1.3 4.5.6 6.7zm-6.7 4.1H3.7c-.5 0-.9-.4-.9-.9V4.7H21v9.7c.7 0 1.3.3 1.8.6V2.8c0-1-.8-1.8-1.8-1.8H2.9C1.8 1 1 1.8 1 2.8v14.9c0 1 .8 1.9 1.9 1.9h6.8c0-.7.2-1.3.6-1.9zm6-1.7c.4-.4.9-.6 1.5-.6.8 0 1.4.4 1.8 1 .2-.1.6-.2 1-.2 1.3 0 2.5 1.1 2.5 2.4S22 21 20.6 21h-.5c-.3.6-.9.9-1.5.9-.3 0-.6-.1-.8-.2-.4.8-1.1 1.3-1.9 1.3-.9 0-1.7-.6-2-1.3h-.4c-1 0-1.9-.8-1.9-1.9 0-.6.4-1.2 1-1.6-.1-.3-.2-.6-.2-.9 0-1.2 1-2.2 2.2-2.2.7 0 1.3.4 1.7.9zm-5.7-2.7c.3-.5.7-1.1.7-1.1.1.5.2.9.3 1.1.1.3.3.6.6.8.6-.5 1.5-.8 2.3-.8h.1c0-.2-.2-.5-.5-.5-.1 0-.1.1-.2.1 0 0-.6.3-.7.1-.2-.3-.3-.6-.4-1-.1-.4-.2-.8-.2-1.3l.5-.8s.6.3.9.3 1-.3 1-1.2-.6-.8-.8-.8c-.4 0-.7.2-1 .8-.4.5-.7 1.1-.7 1.1-.1-.4-.2-.7-.2-.9-.1-.3-.5-1.1-1.3-1.1s-1.6.5-1.6.5c-.1.1-.2.3-.2.4 0 .3.2.5.5.5h.2s.6-.4.8 0c.1.1.1.2.1.3.1.6.3 1.2.4 1.8l-.5.8s-.6-.3-1-.3-.9.3-.9 1.1.6.9.8.9c.4.1.7-.2 1-.8z"></path>
</svg>
